# xmcd CD database file
#
# Track frame offsets:
#	150
#	21566
#	35994
#	54473
#	64613
#	75413
#	83476
#	111826
#
# Disc length: 1717 seconds
#
# Revision: 0
# Processed by: cddbd v1.5.2PL0 Copyright (c) Steve Scherf et al.
# Submitted via: CDex 1.70beta2
#
DISCID=6006b308
DTITLE=Jakob Spötl - Auftakt...eines Melodieverlaufs
DYEAR=2009
DGENRE=Jazz
TTITLE0=Feuerelfen
TTITLE1=A Friend
TTITLE2=Black Tears
TTITLE3=Erkennst du nicht?
TTITLE4=Für Evelyn
TTITLE5=Ein Atemzug
TTITLE6=Kaburuka
TTITLE7=The Bird
EXTD=YEAR: 2009
EXTT0=
EXTT1=
EXTT2=
EXTT3=
EXTT4=
EXTT5=
EXTT6=
EXTT7=
PLAYORDER=
